# xmcd CD database file
#
# Track frame offsets:
#	150
#	32070
#	56530
#	84190
#	110250
#	135622
#	161367
#	185430
#
# Disc length: 2817 seconds
#
# Revision: 0
# Processed by: cddbd v1.5.2PL0 Copyright (c) Steve Scherf et al.
# Submitted via: CDex 1.70beta2
#
DISCID=590aff08
DTITLE=Yama-Ben Project - Indreams
DYEAR=1998
DGENRE=New Age
TTITLE0=Inspring Wind
TTITLE1=Maya-maya
TTITLE2=Indreams
TTITLE3=Cape Town
TTITLE4=P.C.H
TTITLE5=Endress Paradaise
TTITLE6=People in Water
TTITLE7=Foreever
EXTD=YEAR: 1998
EXTT0=
EXTT1=
EXTT2=
EXTT3=
EXTT4=
EXTT5=
EXTT6=
EXTT7=
PLAYORDER=
